# xmcd
#
# Track frame offsets:
#	150
#	23875
#	49975
#	63325
#	82225
#	106975
#	133525
#	158125
#	176500
#	193675
#	212275
#	226825
#	241075
#
# Disc length: 3405
#
# Revision: 1
# Processed by: cddbd v1.5.1PL0 Copyright (c) Steve Scherf et al.
# Submitted via: EasyCDDAExtractor 4.6.9.1
# Normalized: r0:TDELIM( - )
#
DISCID=a60d4b0d
DTITLE=Various Artist - Techno Carnival
DYEAR=1900
DGENRE=Techno
TTITLE0=Dj Miko - What's Up
TTITLE1=TNN - La CucaMarcha
TTITLE2=The Winning Team - Ole Ole Ole Ole
TTITLE3=Go Brooklyn - Passion '94
TTITLE4=Les G.O. Culture - Le Dirlada de Bronzes (Pleasure Game Remix)
TTITLE5=Atenna - Ava (Elastic Mic)
TTITLE6=DJ Dero - Batucada (Xpoz'd mix)
TTITLE7=Pacha Rebels - El tirmo de loco
TTITLE8=Sysex - Eine kleine Nachtmusik (suck-ann)
TTITLE9=X-cite - Chiki Chiki (Dry Mix)
TTITLE10=Atenna - Zorba the Greek
TTITLE11=Walter Nita - Walter'wedding march (House Version)
TTITLE12=Dom's Kindergarten and Tony Trapp - Tiroler Circus (Radio Mix)
EXTD=
EXTT0=
EXTT1=
EXTT2=
EXTT3=
EXTT4=
EXTT5=
EXTT6=
EXTT7=
EXTT8=
EXTT9=
EXTT10=
EXTT11=
EXTT12=
PLAYORDER=
